<svg width="40" height="22" viewBox="0 0 40 22" fill="none" xmlns="http://www.w3.org/2000/svg">
<path d="M12.0078 0.100586C13.707 0.276367 15.0352 0.520508 15.9922 0.833008C17.4375 1.29199 18.7021 1.94629 19.7861 2.7959C20.8799 3.63574 21.7295 4.63184 22.335 5.78418C22.9502 6.93652 23.2578 8.18652 23.2578 9.53418C23.2578 10.7842 22.9355 12.0146 22.291 13.2256C21.6465 14.4365 20.5381 15.7988 18.9658 17.3125C17.4033 18.8262 15.8262 19.9883 14.2344 20.7988C12.6426 21.5996 11.085 22 9.56152 22C7.93066 22 6.35352 21.5947 4.83008 20.7842C3.30664 19.9736 2.12988 18.8604 1.2998 17.4443C0.469727 16.0186 0.0546875 14.4463 0.0546875 12.7275C0.0546875 11.7412 0.157227 10.7939 0.362305 9.88574C0.567383 8.96777 0.923828 7.9082 1.43164 6.70703C2.39844 6.22852 3.53125 5.56934 4.83008 4.72949C5.52344 4.27051 7.27637 3.15723 10.0889 1.38965C10.6553 1.03809 11.2949 0.608398 12.0078 0.100586ZM10.8945 3.01562C10.2305 2.97656 9.57617 2.94727 8.93164 2.92773V11.585C8.93164 12.5225 8.86816 13.1768 8.74121 13.5479C8.61426 13.9189 8.37988 14.3047 8.03809 14.7051L5.32812 17.3125C6.24609 18.0938 7.11035 18.6504 7.9209 18.9824C8.74121 19.3047 9.73242 19.5049 10.8945 19.583V3.01562ZM11.5244 6.92676C12.2275 7.53223 12.8916 7.97168 13.5166 8.24512C14.1514 8.50879 14.8398 8.64062 15.582 8.64062C16.2656 8.64062 16.8955 8.50879 17.4717 8.24512C18.0576 7.97168 18.6729 7.53223 19.3174 6.92676C18.7607 6.2041 18.2432 5.66699 17.7646 5.31543C16.8857 4.68066 15.9385 4.18262 14.9229 3.82129C13.917 3.45996 12.7842 3.20605 11.5244 3.05957V6.92676ZM5.92871 4.84668C5.09863 5.46191 4.50293 5.97949 4.1416 6.39941C3.66309 6.95605 3.2627 7.63477 2.94043 8.43555C2.61816 9.23633 2.45703 10.1152 2.45703 11.0723C2.45703 13.1426 3.25293 15.0713 4.84473 16.8584C5.29395 16.4385 5.58691 16.0234 5.72363 15.6133C5.86035 15.1934 5.92871 14.3779 5.92871 13.167V4.84668ZM11.5244 13.0352C12.2178 12.3516 12.8623 11.873 13.458 11.5996C14.0635 11.3262 14.7617 11.1895 15.5527 11.1895C16.3828 11.1895 17.1299 11.3359 17.7939 11.6289C18.458 11.9219 19.1709 12.4297 19.9326 13.1523C20.1963 12.1855 20.3281 11.3457 20.3281 10.6328C20.3281 9.97852 20.2793 9.40723 20.1816 8.91895C20.1035 8.55762 19.9424 8.1084 19.6982 7.57129C18.8486 8.25488 18.1113 8.72363 17.4863 8.97754C16.8613 9.22168 16.168 9.34375 15.4062 9.34375C14.7129 9.34375 14.0781 9.23145 13.502 9.00684C12.9258 8.77246 12.2666 8.35742 11.5244 7.76172V13.0352ZM11.5244 19.583C12.7549 19.5146 13.7559 19.3145 14.5273 18.9824C15.6992 18.4844 16.7148 17.8008 17.5742 16.9316C18.4336 16.0527 19.1416 14.9932 19.6982 13.7529C18.3506 12.4834 16.9736 11.8486 15.5674 11.8486C14.7471 11.8486 13.9658 12.0684 13.2236 12.5078C12.6768 12.8203 12.1104 13.3477 11.5244 14.0898V19.583ZM34.332 6.38477L36.7344 8.62598L38.1553 7.24902L38.5654 7.64453C37.8818 8.26953 37.4668 8.74316 37.3203 9.06543C37.125 9.49512 37.0273 10.0859 37.0273 10.8379V17.7959C37.0273 18.4404 37.1299 18.9189 37.335 19.2314C37.4619 19.4365 37.6035 19.5391 37.7598 19.5391C37.8965 19.5391 38.2188 19.3486 38.7266 18.9678L39.0781 19.4219L35.9287 22C35.1182 21.3848 34.5957 20.8428 34.3613 20.374C34.1367 19.8955 34.0244 19.1289 34.0244 18.0742V10.0029L32.4277 8.62598L30.0547 10.5156V18.8506L31.1094 19.9053L28.5166 22L25.9092 19.9053L27.0518 18.8506V11.3652C27.0518 10.3008 26.9443 9.58301 26.7295 9.21191C26.583 8.95801 26.417 8.83105 26.2314 8.83105C26.0361 8.83105 25.7432 8.98242 25.3525 9.28516L25.001 8.875L28.1211 6.38477C28.9805 6.99023 29.5176 7.46875 29.7324 7.82031C29.9473 8.17188 30.0547 8.66016 30.0547 9.28516V9.7832L34.332 6.38477Z" fill="#404040"/>
</svg>
