<svg width="1060" height="201" viewBox="0 0 1060 201" fill="none" xmlns="http://www.w3.org/2000/svg">
<path d="M46.475 184.211C39.7684 184.888 33.5653 183.354 27.8336 179.608C22.1876 175.809 17.2594 170.106 13.0705 162.466C8.94581 154.785 5.73177 145.6 3.38553 134.892C1.1357 124.163 -0.010639 112.206 7.44047e-05 98.8314C-0.010639 85.0336 1.1357 71.9553 3.37481 59.8505C5.72106 47.8409 8.99938 37.4925 13.1883 28.9006C17.388 20.5733 22.3055 14.4362 27.9515 10.4577C33.5975 6.62732 39.7256 5.17771 46.3465 6.04536C53.0424 6.93418 59.1812 9.91806 64.7522 14.9229C70.3875 19.8961 75.2728 26.4776 79.3975 34.6356C83.5972 42.7302 86.8648 52.0099 89.1896 62.4746C91.5251 72.7277 92.7143 84.0073 92.7036 96.292C92.7036 108.407 91.5358 119.666 89.1896 130.13C86.8648 140.458 83.5972 149.547 79.3975 157.409C75.2728 165.165 70.3982 171.408 64.7522 176.106C59.1812 180.835 53.096 183.555 46.475 184.211ZM46.3465 151.113C50.139 150.848 53.6209 149.335 56.7492 146.552C59.9847 143.812 62.8023 139.982 65.2236 135.072C67.6448 130.183 69.509 124.438 70.8053 117.878C72.1766 111.307 72.8516 104.037 72.8623 96.0592C72.8516 88.0492 72.1766 80.7377 70.7946 74.1245C69.509 67.4689 67.6448 61.6387 65.2236 56.6656C62.8881 51.6713 60.1026 47.7245 56.8885 44.8782C53.6423 42.0001 50.139 40.4129 46.3465 40.1061C42.5539 39.8204 39.0506 40.8997 35.8152 43.3968C32.6654 45.9257 29.8799 49.7455 27.4587 54.7927C25.0588 59.9034 23.1518 66.0616 21.7912 73.1827C20.4842 80.2933 19.8414 88.1868 19.8521 96.7893C19.8414 105.159 20.4949 112.83 21.7805 119.835C23.1518 126.596 25.0053 132.405 27.3408 137.22C29.7728 142.003 32.6011 145.579 35.8259 147.949C39.0399 150.34 42.5539 151.377 46.3465 151.113ZM113.488 175.153C113.488 122.798 113.491 70.3258 113.498 17.7375C118.898 18.4429 124.301 19.1519 129.708 19.8643C146.364 57.632 163.023 94.151 179.686 129.422C177.065 129.499 174.447 129.573 171.833 129.644C171.826 94.8177 171.822 60.0656 171.822 25.3877C178.286 26.2271 184.743 27.0701 191.192 27.9166C191.2 74.7417 191.203 121.539 191.203 168.307C185.825 168.773 180.457 169.242 175.101 169.715C158.402 135.446 141.696 99.7273 124.983 62.5593C127.604 62.7356 130.229 62.9155 132.858 63.0989C132.85 100.041 132.85 136.818 132.858 173.429C126.408 174 119.951 174.575 113.488 175.153ZM238.342 164.202C238.349 146.51 238.349 128.801 238.342 111.074C239.835 117.126 241.328 123.161 242.821 129.178C230.393 97.0115 217.969 63.8854 205.548 29.8C212.484 30.71 219.426 31.62 226.375 32.53C235.889 57.9953 245.406 82.9103 254.927 107.275C250.927 107.247 246.931 107.219 242.938 107.191C252.502 83.6581 262.065 60.7464 271.629 38.4554C278.05 39.2948 284.464 40.1343 290.87 40.9737C278.443 69.2536 266.015 98.5493 253.588 128.861C255.045 122.907 256.502 116.985 257.959 111.095C257.951 128.243 257.951 145.381 257.959 162.509C251.416 163.073 244.877 163.637 238.342 164.202ZM331.185 158.033C324.414 158.647 317.911 158.044 311.697 156.202C305.494 154.181 300.491 151.303 296.709 147.547C298.916 140.62 301.13 133.735 303.352 126.893C306.983 130.289 311.258 133.019 316.176 135.093C321.189 136.998 326.225 137.802 331.314 137.537C335.181 137.336 338.288 136.723 340.624 135.675C343.045 134.532 344.823 133.083 345.948 131.305C347.084 129.527 347.652 127.528 347.652 125.305C347.662 122.47 346.762 120.269 344.995 118.661C343.206 116.957 340.87 115.592 337.967 114.587C335.063 113.465 331.828 112.439 328.282 111.497C324.811 110.439 321.307 109.137 317.75 107.624C314.279 106.09 311.097 104.09 308.194 101.635C305.291 99.17 302.902 95.9005 301.048 91.8479C299.28 87.7847 298.391 82.6211 298.391 76.3782C298.402 69.691 299.677 63.7338 302.259 58.549C304.926 53.3325 308.89 49.4492 314.119 46.9415C319.443 44.3914 326.107 43.6825 334.088 44.7512C339.413 45.4707 344.663 46.9944 349.837 49.3117C354.99 51.4914 359.554 54.3483 363.508 57.8612C361.486 63.695 359.469 69.564 357.454 75.4683C353.501 72.3574 349.548 69.9661 345.605 68.2942C341.641 66.4955 337.763 65.4162 333.971 65.0564C330.178 64.6967 327.071 64.9718 324.65 65.9135C322.229 66.8658 320.493 68.2519 319.443 70.1036C318.404 71.8389 317.879 73.934 317.879 76.3994C317.879 79.3092 318.768 81.7111 320.536 83.6263C322.314 85.4357 324.65 86.9382 327.553 88.1339C330.457 89.319 333.649 90.5041 337.12 91.6786C340.667 92.8531 344.181 94.1651 347.652 95.6042C351.209 97.0221 354.423 98.8738 357.326 101.117C360.251 103.35 362.576 106.217 364.365 109.762C366.218 113.254 367.129 117.655 367.129 122.999C367.129 128.734 365.8 134.056 363.154 138.997C360.476 144.002 356.48 148.224 351.155 151.663C345.916 155.165 339.252 157.303 331.185 158.033ZM444.683 61.2366C451.219 62.1113 457.75 62.986 464.278 63.8607C464.278 90.5605 464.282 117.391 464.289 144.352C457.747 144.951 451.208 145.547 444.673 146.14C444.673 117.74 444.676 89.4389 444.683 61.2366ZM406.19 149.579C399.655 150.157 393.12 150.732 386.584 151.303C386.584 118.664 386.588 86.0776 386.595 53.5441C393.123 54.4047 399.655 55.2689 406.19 56.1365C406.19 87.2169 406.19 118.364 406.19 149.579ZM446.13 111.074C432.331 111.088 418.532 111.095 404.733 111.095C404.733 105.021 404.733 98.9549 404.733 92.8954C418.532 93.5162 432.331 94.1334 446.13 94.7471C446.13 100.186 446.13 105.628 446.13 111.074ZM530.927 140.489C524.392 140.532 518.296 139.971 512.65 138.564C507.079 137.072 502.236 134.733 498.122 131.517C494.008 128.258 490.783 124.311 488.448 119.687C486.187 115.031 485.062 109.878 485.062 104.27C485.062 98.6833 486.187 93.6044 488.448 89.0756C490.783 84.5998 494.008 80.8435 498.133 77.8173C502.322 74.8546 507.207 72.8124 512.767 71.6591C518.338 70.4422 524.434 70.0719 531.045 70.22C538.383 69.7544 545.004 70.0825 550.897 71.5532C556.875 72.9817 561.867 75.6587 565.906 79.5843C561.707 83.2948 557.51 86.903 553.318 90.4088C550.404 87.7953 547.179 85.9224 543.633 84.7691C540.097 83.5628 536.219 83.0126 532.009 83.0973C528.056 83.0973 524.434 83.5628 521.124 84.5046C517.813 85.4145 514.953 86.7901 512.532 88.6418C510.11 90.5147 508.214 92.7896 506.843 95.4666C505.557 98.1648 504.904 101.202 504.904 104.556C504.904 107.921 505.547 111 506.843 113.761C508.214 116.502 510.11 118.872 512.532 120.851C514.953 122.819 517.813 124.3 521.124 125.305C524.434 126.342 528.056 126.882 532.019 126.924C536.208 127.03 540.087 126.512 543.633 125.316C547.179 124.057 550.404 122.057 553.318 119.295C557.51 122.851 561.707 126.494 565.906 130.226C561.867 134.321 556.875 137.209 550.897 138.881C545.015 140.511 538.362 140.944 530.927 140.489ZM643.289 56.3164C649.825 55.3782 656.36 54.4435 662.895 53.5124C662.895 87.1886 662.899 120.932 662.906 154.742C656.363 153.952 649.825 153.159 643.289 152.361C643.289 120.265 643.289 88.2503 643.289 56.3164ZM604.796 147.653C598.268 146.842 591.736 146.03 585.201 145.219C585.194 118.209 585.19 91.3541 585.19 64.6543C591.726 63.7091 598.261 62.7674 604.796 61.8292C604.796 90.3207 604.796 118.929 604.796 147.653ZM644.736 112.809C630.944 112.598 617.149 112.379 603.35 112.153C603.35 106.651 603.35 101.159 603.35 95.6783C617.149 95.1562 630.944 94.6272 644.736 94.0911C644.743 100.327 644.743 106.566 644.736 112.809ZM707.024 92.6309C720.623 92.13 734.218 91.6327 747.81 91.1389C747.81 98.5457 747.813 105.953 747.821 113.359C734.222 113.211 720.623 113.056 707.024 112.894C707.024 106.136 707.024 99.3817 707.024 92.6309ZM708.481 139.103C723.851 140.218 739.221 141.332 754.592 142.447C754.592 150.206 754.592 157.973 754.592 165.747C732.722 163.13 710.859 160.509 689.004 157.885C688.997 121.803 688.993 85.7743 688.993 49.7984C710.334 46.7651 731.675 43.7389 753.017 40.7198C753.017 48.437 753.017 56.1506 753.017 63.8607C738.168 65.2575 723.323 66.6542 708.481 68.0509C708.481 91.7244 708.481 115.409 708.481 139.103ZM776.243 168.328C776.243 124.664 776.243 81.0304 776.243 37.429C781.65 36.6601 787.057 35.8948 792.464 35.1329C809.119 66.7071 825.779 99.9248 842.442 134.786C839.821 134.659 837.199 134.536 834.578 134.416C834.578 99.2512 834.578 64.1676 834.578 29.1652C841.035 28.2481 847.488 27.3346 853.937 26.4246C853.937 76.798 853.937 127.192 853.937 177.608C848.574 176.966 843.21 176.324 837.846 175.682C821.147 139.982 804.445 105.829 787.739 73.2251C790.36 73.0417 792.985 72.8582 795.613 72.6748C795.606 105.349 795.603 138.006 795.603 170.646C789.153 169.87 782.7 169.097 776.243 168.328ZM897.584 145.801C897.22 131.284 896.859 116.752 896.502 102.207C910.015 73.7859 923.528 44.5819 937.042 14.5949C944.305 13.5509 951.569 12.5069 958.833 11.4629C946.648 39.9756 934.463 67.8745 922.279 95.1598C918.643 102.94 915.011 110.661 911.383 118.322C906.783 127.591 902.184 136.751 897.584 145.801ZM880.035 180.73C880.035 128.05 880.035 75.3801 880.035 22.7212C886.542 21.7972 893.038 20.8731 899.523 19.949C899.523 74.3149 899.523 128.688 899.523 183.068C893.031 182.292 886.535 181.513 880.035 180.73ZM938.017 187.713C927.967 162.036 917.922 136.825 907.88 112.079C912.151 102.909 916.425 93.6502 920.704 84.3035C934.095 118.798 947.491 154.196 960.89 190.496C953.262 189.565 945.637 188.637 938.017 187.713ZM1013.76 200.252C1007.05 199.384 1000.85 196.199 995.119 190.739C989.473 185.343 984.556 178.169 980.356 169.175C976.253 160.276 973.017 150.044 970.682 138.426C968.421 126.871 967.286 114.343 967.286 100.8C967.286 87.2239 968.421 74.6747 970.671 63.0566C973.007 51.4067 976.274 41.0795 980.474 32.0856C984.674 23.0175 989.591 15.6954 995.237 10.172C1000.88 4.59574 1007.02 1.28384 1013.63 0.289217C1020.33 -0.705411 1026.47 0.860601 1032.03 5.06132C1037.68 9.35726 1042.56 16.0022 1046.67 24.9962C1050.87 34.1806 1054.15 45.2591 1056.49 58.1575C1058.82 70.929 1060 85.1606 1060 100.704C1060 115.952 1058.82 130.046 1056.49 142.987C1054.14 155.652 1050.87 166.54 1046.67 175.598C1042.56 184.306 1037.68 190.835 1032.03 195.173C1026.47 199.437 1020.37 201.109 1013.76 200.252ZM1013.63 162.667C1017.44 162.974 1020.9 161.779 1024.06 159.038C1027.28 156.287 1030.11 152.171 1032.52 146.648C1034.94 141.082 1036.79 134.395 1038.08 126.618C1039.45 118.787 1040.15 110.037 1040.15 100.419C1040.14 90.758 1039.45 81.9757 1038.09 74.1245C1036.79 66.2732 1034.94 59.5331 1032.52 53.9462C1030.17 48.4334 1027.39 44.275 1024.16 41.5451C1020.95 38.8258 1017.44 37.6724 1013.63 38.0427C1009.84 38.4025 1006.34 40.1907 1003.1 43.418C999.962 46.5923 997.176 51.0047 994.755 56.5809C992.334 62.136 990.448 68.654 989.066 76.082C987.781 83.4676 987.127 91.6468 987.138 100.62C987.138 109.391 987.781 117.528 989.066 125.104C990.448 132.479 992.302 138.945 994.637 144.468C997.058 150.012 999.887 154.34 1003.1 157.462C1006.34 160.625 1009.84 162.35 1013.63 162.667Z" fill="white"/>
</svg>
